<?xml version="1.0" encoding="utf-8" ?><svg xmlns="http://www.w3.org/2000/svg" xmlns:xlink="http://www.w3.org/1999/xlink" width="1024" height="1024" viewBox="0 0 1024 1024" fill="#FFFFFF"><path transform="scale(2 2)" d="M300.875 433.804L156.418 433.821C153.744 433.825 150.483 433.672 147.879 433.832C113.471 435.954 82.213 410.623 75.4331 377.159C73.2746 366.505 73.9087 355.788 73.9105 344.71L73.9146 153.822C73.9088 147.005 73.7547 140.247 74.2371 133.407C76.3231 101.426 103.025 72.7661 135.09 69.5881C144.88 68.6178 156.751 69.149 166.754 69.1487L212.013 69.1489L357.933 69.144C365.88 69.1355 375.202 68.5307 382.821 70.2369C416.192 77.8983 438.257 108.659 438.329 142.281L438.334 344.559C438.342 354.738 438.837 365.214 437.186 375.254C432.392 404.415 406.603 429.611 377.221 433.216C367.443 434.415 354.421 433.811 344.406 433.81L300.875 433.804ZM335.947 129.823C328.968 131.46 320.504 142.084 315.293 147.15C305.437 156.732 295.023 166.461 285.632 176.462L236.511 176.458C228.729 176.456 219.686 176.208 212.013 176.462C212.033 170.314 212.024 164.107 211.973 157.778C211.863 144.294 194.402 141.151 190.23 153.715C189.381 156.273 189.696 162.404 189.7 165.449L189.725 181.381C185.813 182.752 181.857 184.073 178.144 185.868C114.367 216.486 118.024 309.171 182.415 333.523L182.396 349.371C182.394 356.317 181.631 362.792 186.03 368.648C193.795 377.709 208.448 374.894 219.741 374.893L296.487 374.886C308.554 374.887 329.439 377.805 329.72 359.645C329.849 351.291 329.759 343.019 329.772 334.698C334.565 332.423 339.348 330.051 343.71 327.096C400.073 288.913 390.74 205.878 327.266 183.344C323.5 182.036 318.931 180.857 315.032 179.811C319.413 176.034 326.701 168.258 331.06 163.947L340.587 154.544C342.549 152.612 346.344 149.25 347.647 147.015C352.628 138.47 344.846 129.108 335.947 129.823Z"/><path transform="scale(2 2)" d="M316.815 303.675C291.507 306.47 268.743 288.177 266.026 262.861C263.31 237.544 281.674 214.837 306.999 212.2C332.212 209.574 354.797 227.84 357.502 253.045C360.206 278.249 342.011 300.891 316.815 303.675ZM295.86 244.863C295.445 246.315 295.863 264.681 295.86 267.729C299.851 267.981 304.088 267.759 308.125 267.737L328.962 267.729C330.052 267.029 329.778 260.08 329.779 258.381L329.772 244.863L295.86 244.863Z"/><path transform="scale(2 2)" d="M204.873 303.972C179.608 306.711 156.902 288.46 154.145 263.197C151.388 237.933 169.623 215.214 194.885 212.439C220.171 209.662 242.918 227.919 245.678 253.208C248.437 278.497 230.164 301.231 204.873 303.972ZM197.828 230.282C182.427 231.464 170.91 244.922 172.121 260.32C173.332 275.719 186.811 287.211 202.207 285.972C217.563 284.736 229.019 271.3 227.811 255.941C226.604 240.583 213.189 229.102 197.828 230.282Z"/><path transform="scale(2 2)" d="M202.858 267.994C197.488 269.08 192.247 265.631 191.12 260.27C189.993 254.909 193.402 249.642 198.755 248.474C204.165 247.293 209.502 250.747 210.641 256.166C211.78 261.586 208.286 266.896 202.858 267.994Z"/><path transform="scale(2 2)" d="M255.67 348.48C245.747 340.123 232.893 326.708 223.625 317.323C230.387 317.12 238.294 317.321 245.133 317.322L287.873 317.323C282.54 322.35 277.374 327.516 272.16 332.663C266.601 337.885 261.163 343.194 255.67 348.48Z"/></svg>